<?xml version="1.0" encoding="UTF-8" standalone="no"?>
<!-- Created with Inkscape (http://www.inkscape.org/) -->

<svg
   xmlns:dc="http://purl.org/dc/elements/1.1/"
   xmlns:cc="http://creativecommons.org/ns#"
   xmlns:rdf="http://www.w3.org/1999/02/22-rdf-syntax-ns#"
   xmlns:svg="http://www.w3.org/2000/svg"
   xmlns="http://www.w3.org/2000/svg"
   xmlns:sodipodi="http://sodipodi.sourceforge.net/DTD/sodipodi-0.dtd"
   xmlns:inkscape="http://www.inkscape.org/namespaces/inkscape"
   id="svg2"
   version="1.1"
   inkscape:version="0.48.4 r9939"
   width="200"
   height="318"
   sodipodi:docname="logop5.png">
  <metadata
     id="metadata8">
    <rdf:RDF>
      <cc:Work
         rdf:about="">
        <dc:format>image/svg+xml</dc:format>
        <dc:type
           rdf:resource="http://purl.org/dc/dcmitype/StillImage" />
        <dc:title></dc:title>
      </cc:Work>
    </rdf:RDF>
  </metadata>
  <defs
     id="defs6" />
  <sodipodi:namedview
     pagecolor="#ffffff"
     bordercolor="#666666"
     borderopacity="1"
     objecttolerance="10"
     gridtolerance="10"
     guidetolerance="10"
     inkscape:pageopacity="0"
     inkscape:pageshadow="2"
     inkscape:window-width="1366"
     inkscape:window-height="705"
     id="namedview4"
     showgrid="false"
     inkscape:zoom="0.74213836"
     inkscape:cx="100"
     inkscape:cy="159"
     inkscape:window-x="-8"
     inkscape:window-y="-8"
     inkscape:window-maximized="1"
     inkscape:current-layer="svg2" />
  <path
     style="fill:#1fda9a"
     d="m 17.666262,305.12737 c 0,-3.24481 -0.418116,-3.9999 -2.916222,-5.26648 -1.603921,-0.81323 -2.91622,-1.82998 -2.91622,-2.25944 0,-1.51594 7.749014,-12.51348 8.817159,-12.51348 0.595631,0 2.245545,0.89869 3.666474,1.9971 2.225486,1.72035 2.627065,1.7864 2.897805,0.47655 0.392254,-1.89774 2.145512,-1.94392 4.603298,-0.12124 2.46437,1.82756 4.317106,1.82773 4.317106,4e-4 0,-2.07024 2.979706,-2.94718 4.271884,-1.25725 1.666824,2.17991 4.211077,2.74947 5.496808,1.23052 0.639194,-0.75515 1.997204,-1.373 3.017802,-1.373 2.528427,0 3.497579,2.8374 1.466518,4.29354 -1.999945,1.43384 -2.071556,2.37811 -0.180351,2.37811 1.972499,0 5.26759,4.95739 3.647113,5.48699 -0.656986,0.21472 -1.19452,1.38675 -1.19452,2.60448 0,1.67179 0.433287,2.10299 1.769035,1.7605 2.639224,-0.67669 4.469501,1.91956 3.109588,4.41096 -0.937276,1.71712 -1.89793,1.97079 -6.905663,1.82346 -4.168507,-0.12264 -6.074476,-0.60309 -6.725754,-1.6954 -0.810402,-1.35918 -0.912026,-1.34363 -0.938383,0.14365 -0.02314,1.30568 -0.874026,1.66792 -3.917855,1.66792 -3.200836,0 -3.888294,-0.32708 -3.888294,-1.84994 0,-1.01746 -0.437434,-2.115 -0.972074,-2.43897 -0.534642,-0.32398 -0.972074,0.24816 -0.972074,1.27141 0,1.85781 -1.753283,3.0175 -4.562018,3.0175 -1.172715,0 -1.35196,-0.70468 -0.848524,-3.33583 0.626074,-3.27208 0.577068,-3.33466 -2.565019,-3.2754 -2.89443,0.0546 -2.992402,0.14352 -1.016121,0.92237 1.460897,0.57575 2.187166,1.66338 2.187166,3.27542 0,2.22497 -0.341584,2.41344 -4.374332,2.41344 l -4.374332,0 0,-3.78789 z m 5.319233,0.9206 c -1.057737,-0.36306 -2.192207,-1.89712 -2.53102,-3.42253 -0.545742,-2.45704 -0.626838,-2.32868 -0.729054,1.15392 -0.110673,3.77063 -0.01517,3.89976 2.531018,3.42252 2.337572,-0.43812 2.422561,-0.57264 0.729056,-1.15391 z m 8.081081,-8.65843 -0.292276,-8.01266 -0.478557,8.77288 c -0.263209,4.82509 -0.131684,8.43077 0.292274,8.01266 0.423959,-0.41812 0.639311,-4.36592 0.478559,-8.77288 z m 10.305401,6.58515 c 0.34043,-1.66891 0.285052,-3.27725 -0.12306,-3.57409 -0.408113,-0.29685 -1.354043,-1.70453 -2.102069,-3.12819 -0.748026,-1.42366 -1.787728,-2.32932 -2.310446,-2.01256 -0.535158,0.32428 -0.258792,0.95539 0.632542,1.44446 1.93683,1.06275 2.236158,8.93439 0.367848,9.67354 -0.6683,0.26441 -0.285546,0.5146 0.850564,0.55597 1.568882,0.0572 2.214512,-0.65449 2.684621,-2.95913 z m 9.244327,-1.96935 -0.100467,-5.00373 -0.97101,3.58585 c -0.534053,1.97222 -0.721289,4.2239 -0.416078,5.00372 1.053079,2.6907 1.5877,1.40197 1.487555,-3.58584 z m -2.815756,0.65857 c 0,-2.01868 -0.393576,-3.15357 -0.972074,-2.80302 -0.53464,0.32397 -0.972074,1.8504 -0.972074,3.39206 0,1.54167 0.437434,2.80303 0.972074,2.80303 0.53464,0 0.972074,-1.52644 0.972074,-3.39207 z m -11.261925,-3.50325 c 0.60027,-0.39836 0.112253,-0.70652 -1.132015,-0.71482 -1.748636,-0.0116 -2.181239,0.51092 -2.157607,2.60641 0.02755,2.44256 0.104614,2.49123 1.132016,0.71481 0.606351,-1.0484 1.577273,-2.22127 2.157606,-2.6064 z m -11.42406,-0.96769 c -0.269665,-0.65525 -0.4903,-0.11913 -0.4903,1.19137 0,1.3105 0.220635,1.84662 0.4903,1.19136 0.269666,-0.65525 0.269666,-1.72748 0,-2.38273 z m -7.292148,-4.11274 0.748185,-2.79717 -1.888665,2.38273 c -2.157776,2.72224 -2.462669,4.14468 -0.769799,3.59141 0.639152,-0.20889 1.498777,-1.63853 1.910279,-3.17697 z m 4.704215,-2.1049 c 0,-0.81758 -0.123779,-1.30781 -0.275066,-1.08939 -0.151285,0.21842 -0.869307,1.1575 -1.595603,2.08685 -1.14966,1.47108 -1.114066,1.61205 0.275065,1.08939 0.877582,-0.33018 1.595604,-1.26926 1.595604,-2.08685 z m 5.23545,1.27409 c -0.310703,-0.79387 -1.187283,-1.12441 -2.085584,-0.78642 -1.464729,0.55109 -0.890883,1.04868 2.409049,2.08889 0.116883,0.0369 -0.02868,-0.54927 -0.323465,-1.30247 z m 6.780962,-0.0602 c -0.30774,-0.78629 -0.731445,-1.42963 -0.941565,-1.42963 -0.21012,0 -0.382035,0.64334 -0.382035,1.42963 0,0.7863 0.423705,1.42964 0.941565,1.42964 0.517861,0 0.689778,-0.64334 0.382035,-1.42964 z m 7.425064,-1.80421 c 0,-2.00953 -2.276811,-2.4481 -4.415054,-0.85046 -1.858022,1.38826 -1.853205,1.40754 0.201933,0.80829 1.157948,-0.33764 2.386705,-0.16755 2.730571,0.37797 0.868254,1.37743 1.48255,1.23829 1.48255,-0.3358 z M 21.73682,288.24926 c -0.701715,-0.27532 -1.540129,-0.24146 -1.863141,0.0752 -0.323011,0.3167 0.25112,0.54196 1.275846,0.50058 1.132411,-0.0457 1.36275,-0.27158 0.587295,-0.57582 z m 57.413106,19.99337 c -2.252009,-0.42529 -3.057177,-3.45313 -1.215092,-4.56938 0.53464,-0.32398 0.972074,-1.27353 0.972074,-2.11014 0,-1.32477 -0.250956,-1.29844 -1.944148,0.20395 -1.069282,0.9488 -1.944148,2.52984 -1.944148,3.51345 0,0.98362 -0.672442,2.04139 -1.494315,2.35062 -1.994269,0.75032 -5.310201,-2.30547 -5.310201,-4.89361 0,-1.80154 -0.409655,-2.00572 -3.15924,-1.5746 -1.972411,0.30926 -2.498901,0.63557 -1.401474,0.86861 1.262805,0.26814 1.673387,1.08859 1.458112,2.91366 -0.235443,1.99606 -0.820414,2.54043 -2.72984,2.54043 -2.111859,0 -2.442182,-0.43695 -2.521777,-3.33582 -0.05038,-1.8347 -0.597166,-5.88072 -1.215092,-8.99114 -1.939833,-9.76447 -2.43286,-9.21596 8.126301,-9.04096 5.087389,0.0844 9.500665,0.55127 9.807277,1.03769 0.325988,0.51716 1.12178,0.42522 1.916425,-0.22139 0.776961,-0.63222 2.448726,-0.83763 3.903601,-0.47961 1.964487,0.48343 2.426791,1.0681 2.027697,2.56445 -0.391118,1.46643 -0.149291,1.79991 0.993435,1.36997 0.830716,-0.31255 2.111099,-0.0795 2.845295,0.51796 1.083346,0.88155 1.334902,0.52543 1.334902,-1.88974 0,-2.52288 0.362639,-2.97598 2.381882,-2.97598 1.310034,0 2.731692,0.57133 3.15924,1.2696 0.427545,0.69828 2.089656,1.23439 3.693579,1.19136 2.561401,-0.0687 2.911561,0.24068 2.877901,2.54278 -0.0534,3.65584 0.90252,3.27037 2.95454,-1.19137 1.60508,-3.48994 3.96831,-4.84586 5.62123,-3.22522 0.32934,0.32292 3.13622,0.77163 6.23746,0.99712 6.54738,0.47606 8.59781,1.93804 7.69029,5.48325 -0.46615,1.82105 -1.25945,2.46341 -3.04225,2.46341 -1.3264,0 -2.41165,-0.4289 -2.41165,-0.9531 0,-0.5242 -0.65616,-0.95309 -1.45812,-0.95309 -0.80196,0 -1.45812,0.61802 -1.45812,1.37338 0,0.75537 -0.44135,1.64084 -0.98077,1.96771 -1.58364,0.95963 -4.85167,-0.47815 -4.85167,-2.13452 0,-0.83836 -0.2256,-1.30307 -0.50133,-1.03273 -0.27572,0.27034 -0.10096,2.16462 0.38841,4.2095 0.48934,2.04486 0.93364,3.18183 0.98735,2.52657 0.0537,-0.65525 0.92573,-1.19136 1.9378,-1.19136 1.01208,0 2.09193,-0.64334 2.39968,-1.42964 0.61857,-1.58052 4.50883,-1.99169 4.50883,-0.47655 0,0.52421 0.85949,0.9531 1.90996,0.9531 1.05047,0 2.36119,0.82671 2.91273,1.83714 1.16772,2.13932 0.38108,4.8345 -1.41105,4.8345 -0.68241,0 -1.46953,0.85778 -1.74915,1.90618 -0.41532,1.55721 -1.32591,1.90619 -4.97373,1.90619 -2.91628,0 -4.47051,-0.41329 -4.48023,-1.19137 -0.0107,-0.8581 -0.25345,-0.82202 -0.86773,0.129 -0.56459,0.87405 -1.70959,1.10954 -3.38739,0.69666 -2.32067,-0.57107 -2.53451,-1.03763 -2.53451,-5.52985 0,-2.69838 -0.30184,-4.61021 -0.67074,-4.24851 -0.3689,0.3617 -0.55518,2.79208 -0.41396,5.40085 l 0.25676,4.74322 -4.446399,0 c -4.143439,0 -4.446401,-0.1693 -4.446401,-2.4847 0,-1.87416 -0.377828,-2.34255 -1.537613,-1.90619 -0.845688,0.31819 -2.763119,0.57852 -4.260957,0.57852 -1.905827,0 -2.875962,0.57222 -3.231751,1.90618 -0.507427,1.90252 -2.192121,2.18908 -7.251913,1.23356 z m 22.503514,-1.94838 c -0.0534,-0.65525 -0.16275,-3.2286 -0.24284,-5.71855 l -0.14559,-4.52718 -5.343741,0 c -2.939052,0 -5.345023,0.32167 -5.346603,0.71482 -0.0016,0.39315 1.801026,0.71481 4.005792,0.71481 l 4.008668,0 -0.447242,5.28784 c -0.417068,4.93114 -0.310432,5.26869 1.580757,5.00373 1.115399,-0.15626 1.984259,-0.82022 1.930799,-1.47547 z m 16.74932,-2.15226 c 0.12282,-3.22139 0.11321,-3.23067 -0.3001,-0.28957 -0.2487,1.76978 -1.11343,3.23925 -2.07103,3.51937 -1.18944,0.34795 -1.10645,0.42802 0.30011,0.28957 1.50742,-0.14837 1.97266,-0.93896 2.07102,-3.51937 z m -33.958788,-1.42183 c 0.170083,-2.5507 0.115194,-2.61166 -0.508606,-0.56484 -0.384594,1.26194 -1.563973,2.64845 -2.620842,3.08113 -1.670574,0.68393 -1.604137,0.75771 0.508604,0.56483 1.951662,-0.17816 2.467727,-0.78486 2.620844,-3.08112 z m 23.912478,-0.23828 c -0.77889,-4.94895 -1.25941,-5.10046 -1.25941,-0.39711 0,2.18417 0.40993,3.97121 0.91097,3.97121 0.50461,0 0.66005,-1.59427 0.34844,-3.5741 z m 4.08701,2.62101 c -0.33044,-0.52421 -0.79368,-0.95309 -1.02946,-0.95309 -0.23576,0 -0.42866,0.42888 -0.42866,0.95309 0,0.5242 0.46326,0.95309 1.02944,0.95309 0.5662,0 0.7591,-0.42889 0.42868,-0.95309 z m -38.0493,-4.72107 c 0.61077,-0.76189 -0.04976,-0.54745 -1.467852,0.47654 -2.041004,1.47379 -2.34488,2.14102 -1.458111,3.20159 0.937439,1.12116 1.176953,1.0434 1.467853,-0.47655 0.191191,-0.99898 0.847341,-2.43969 1.45811,-3.20158 z m 19.984921,1.25116 c 0.222766,-0.18834 -0.980175,-0.34246 -2.673202,-0.34246 -1.693029,0 -3.078235,0.43706 -3.078235,0.97125 0,0.85479 4.590366,0.35295 5.751437,-0.62879 z m 21.081849,-1.03743 c -0.32302,-0.31669 -0.55276,0.24622 -0.51054,1.25094 0.0466,1.11031 0.27698,1.33614 0.58728,0.57583 0.28081,-0.68802 0.24627,-1.51006 -0.0767,-1.82677 z m 6.80452,0 c -0.32302,-0.31669 -0.55276,0.24622 -0.51056,1.25094 0.0466,1.11031 0.27698,1.33614 0.5873,0.57583 0.28079,-0.68802 0.24627,-1.51006 -0.0767,-1.82677 z M 74.937607,296.7735 c 0.222766,-0.13664 -0.218802,-0.24844 -0.981264,-0.24844 -0.762461,0 -1.990914,0.96501 -2.729894,2.14447 l -1.343601,2.14445 2.324864,-1.89602 c 1.278674,-1.04282 2.507128,-2.00783 2.729895,-2.14446 z m -8.845855,2.02627 c 3.115458,-0.61093 5.038566,-3.89793 5.038566,-8.61202 0,-2.10037 -0.360989,-2.24051 -5.771327,-2.24051 l -5.77133,0 0.562511,3.57409 c 0.687785,4.37006 1.259408,5.22473 1.259408,1.88301 0,-3.11852 0.948931,-3.69842 4.812285,-2.94083 2.74365,0.53801 3.036666,0.91522 2.77304,3.56984 -0.272432,2.74332 -0.571071,2.96826 -3.940687,2.96826 -2.269022,0 -3.645672,0.44993 -3.645276,1.19136 7.26e-4,1.35498 0.522577,1.4226 4.68281,0.6068 z m 14.759302,-0.0136 c 0,-0.0668 -0.598111,-0.60826 -1.329137,-1.20312 -0.999278,-0.81312 -1.581875,-0.78295 -2.347521,0.12158 -0.772201,0.91227 -0.450895,1.20311 1.329137,1.20311 1.291136,0 2.347521,-0.0547 2.347521,-0.12157 z m 7.442135,-3.47066 c -0.266273,-0.64527 -0.467924,0.11345 -0.448114,1.68605 0.01982,1.5726 0.23767,2.10056 0.484134,1.17323 0.246463,-0.92733 0.230255,-2.214 -0.03601,-2.85928 z m 19.466231,-2.35561 c 1.55896,-4.88355 0.85621,-5.034 -1.58638,-0.33961 -1.43608,2.75995 -1.66818,3.90473 -0.79171,3.90473 0.68199,0 1.75214,-1.60431 2.37809,-3.56512 z m -40.517398,1.18239 c 0,-0.79424 -0.864065,-1.42964 -1.944148,-1.42964 -1.936607,0 -2.528484,1.01556 -1.296097,2.22387 1.183917,1.16081 3.240245,0.65676 3.240245,-0.79423 z m 14.581106,-3.21149 c 0,-1.05491 -0.437432,-2.18309 -0.972074,-2.50707 -0.53464,-0.32397 -0.972074,0.30752 -0.972074,1.40331 0,1.09578 -0.667314,2.24342 -1.482921,2.55028 -1.128105,0.42444 -1.2213,0.86701 -0.389503,1.8497 0.918441,1.08504 1.31131,1.07812 2.454995,-0.0433 0.748867,-0.73419 1.361577,-2.19804 1.361577,-3.25294 z m 14.09507,2.73494 c -0.330427,-0.5242 -0.793676,-0.95309 -1.029443,-0.95309 -0.235767,0 -0.428669,0.42889 -0.428669,0.95309 0,0.5242 0.46325,0.95309 1.029443,0.95309 0.566193,0 0.759094,-0.42889 0.428669,-0.95309 z m 17.983362,-0.0306 c 0,-0.5411 0.98422,-1.37169 2.18716,-1.84578 1.67576,-0.66041 1.78941,-0.87609 0.48604,-0.92238 -0.93562,-0.0332 -2.0292,-0.0348 -2.43018,-0.004 -1.10872,0.0867 -2.26524,3.75574 -1.18378,3.75574 0.51742,0 0.94076,-0.44271 0.94076,-0.9838 z m 7.44114,-2.31092 c -0.31658,-0.8089 -1.13613,-1.43688 -1.82122,-1.39549 -0.9756,0.0589 -0.98222,0.17944 -0.0306,0.55596 0.6683,0.2644 1.2151,1.15981 1.2151,1.9898 0,0.82997 0.27275,1.24162 0.60612,0.91476 0.33336,-0.32685 0.34711,-1.25612 0.0306,-2.06503 z m -29.161215,-2.68024 c -0.266273,-0.64527 -0.467926,0.11345 -0.448114,1.68604 0.0198,1.57261 0.23767,2.10056 0.484132,1.17323 0.246463,-0.92733 0.230255,-2.21399 -0.03601,-2.85927 z m 7.321235,2.46462 c -0.701711,-0.27533 -1.540126,-0.24147 -1.863146,0.0752 -0.323008,0.3167 0.251126,0.54197 1.275852,0.50058 1.132414,-0.0457 1.362744,-0.27157 0.587294,-0.57581 z m 26.31917,15.94741 c -0.95729,-1.50294 -0.90894,-2.12926 0.25221,-3.26775 1.95891,-1.92065 1.80701,-2.97705 -0.65885,-4.58237 -2.08172,-1.35521 -2.08395,-1.39341 -0.34185,-5.86592 1.99518,-5.12229 2.94205,-6.00625 4.80764,-4.4882 1.02116,0.83095 1.2819,0.69835 1.1725,-0.59624 -0.23246,-2.75073 3.05332,-2.55348 5.64844,0.33908 l 2.41206,2.68851 0.0308,-2.26916 c 0.0275,-2.03331 0.36587,-2.21583 3.25532,-1.7561 2.48634,0.3956 3.48971,0.0968 4.38257,-1.30493 1.46574,-2.30121 3.58234,-2.32426 5.21769,-0.0568 0.82635,1.14575 3.64794,2.20167 8.07472,3.02179 3.74248,0.69335 7.22008,1.6164 7.72798,2.0512 1.39082,1.19067 6.78866,0.9491 8.12763,-0.36372 0.92167,-0.90367 1.63461,-0.7059 3.28354,0.91084 l 2.10627,2.06513 3.71818,-3.29357 c 4.48824,-3.97568 6.20129,-4.14027 7.08682,-0.68095 0.52207,2.03947 0.22532,2.90128 -1.35274,3.9286 -2.6434,1.72089 -2.66958,3.93052 -0.0385,3.25593 1.72456,-0.44218 1.96422,-0.0891 1.83946,2.71023 -0.079,1.77026 0.17706,4.61255 0.56878,6.3162 0.97654,4.24704 -1.00209,4.05437 -2.44702,-0.23828 -0.61757,-1.8347 -1.76424,-3.33581 -2.54818,-3.33581 -0.78393,0 -1.35433,-0.53612 -1.26755,-1.19137 0.26628,-2.01049 -0.0512,-6.77528 -0.42333,-6.35395 -0.19291,0.21842 -0.63065,2.19005 -0.97272,4.38139 -0.56573,3.62389 -0.42409,4.01182 1.56584,4.28891 1.40623,0.19582 2.2988,1.07074 2.49846,2.44911 0.27165,1.8754 -0.11866,2.14445 -3.11094,2.14445 -2.23312,0 -3.76571,-0.57933 -4.41238,-1.66791 -0.90891,-1.53005 -0.99326,-1.53469 -1.02037,-0.0563 -0.0416,2.2669 -1.41205,2.83945 -4.25754,1.77872 -1.7432,-0.64982 -2.58412,-0.58324 -2.9238,0.23146 -0.3425,0.82148 -0.76311,0.74091 -1.49323,-0.28602 -0.83711,-1.17744 -1.36226,-1.21947 -2.97702,-0.23827 -1.07834,0.65525 -4.62761,1.19137 -7.88726,1.19137 -4.30729,0 -5.81699,-0.32552 -5.52534,-1.19137 0.22071,-0.65524 1.89753,-1.45657 3.72627,-1.78072 1.82874,-0.32414 2.54865,-0.64581 1.5998,-0.71482 -0.94885,-0.069 -2.11828,-1.1392 -2.59874,-2.37821 -0.88029,-2.27016 -3.93869,-4.19805 -3.93869,-2.4828 0,0.50775 0.65614,0.92318 1.4581,0.92318 0.80196,0 1.45812,0.6568 1.45812,1.45955 0,0.80275 -0.65616,1.70643 -1.45812,2.00815 -0.80196,0.30174 -1.4581,1.36051 -1.4581,2.35283 0,1.53514 -0.74176,1.80421 -4.97375,1.80421 -4.42694,0 -4.92005,-0.20128 -4.48543,-1.83084 0.41598,-1.55961 9.8e-4,-1.80671 -2.79849,-1.66792 -2.41701,0.11982 -3.28795,0.60431 -3.29115,1.83084 -0.003,1.2308 -0.79834,1.66792 -3.0339,1.66792 -2.72825,0 -2.98212,-0.24327 -2.55266,-2.44602 l 0.4769,-2.446 -2.60392,2.446 c -3.12346,2.93403 -4.08555,3.03403 -5.64437,0.58672 z m 11.39456,-1.23826 c -0.012,-1.7341 -0.19522,-1.87088 -0.95719,-0.71482 -1.21794,1.84782 -1.21794,2.85927 0,2.85927 0.53464,0 0.96537,-0.965 0.95719,-2.14445 z m 15.08203,-2.14446 c 0,-2.3589 -0.45227,-4.28891 -1.00504,-4.28891 -0.90145,0 -1.06451,1.86251 -0.60494,6.90991 0.32261,3.54324 1.60998,1.44745 1.60998,-2.621 z m -21.38023,0.4707 c 2.49534,-2.70349 1.4378,-2.92204 -1.37448,-0.28404 -1.28762,1.20784 -1.9022,2.19607 -1.36574,2.19607 0.53646,0 1.76956,-0.86042 2.74022,-1.91203 z m 42.92573,1.27455 c -0.35758,-0.35061 0.0472,-1.393 0.89954,-2.31643 1.43742,-1.55732 1.40237,-1.6412 -0.48391,-1.15755 -2.97684,0.76326 -2.84256,-3.79256 0.15355,-5.20931 1.66017,-0.78503 1.79111,-1.04978 0.5434,-1.09874 -0.90406,-0.0355 -1.91412,0.36439 -2.24454,0.88859 -0.33042,0.52421 -1.7779,1.0115 -3.2166,1.08289 -2.29108,0.11368 -2.3443,0.18108 -0.42868,0.54283 3.0486,0.57572 2.76837,3.50546 -0.48604,5.08116 l -2.6732,1.29429 3.8883,0.62963 c 2.13856,0.34629 4.07056,0.69049 4.29333,0.76487 0.22276,0.0744 0.11244,-0.15161 -0.24515,-0.50223 z m 13.14538,-0.0137 c -0.70172,-0.27532 -1.54014,-0.24147 -1.86315,0.0752 -0.32301,0.3167 0.25112,0.54196 1.27584,0.50058 1.13243,-0.0457 1.36276,-0.27157 0.58731,-0.57582 z m -49.17073,-4.80936 c -0.32302,-0.3167 -0.55276,0.24622 -0.51056,1.25093 0.0466,1.11031 0.27698,1.33614 0.5873,0.57584 0.28079,-0.68802 0.24627,-1.51007 -0.0767,-1.82677 z m 7.43231,1.96994 c -0.6683,-0.26441 -1.76188,-0.26441 -2.43018,0 -0.6683,0.26439 -0.12152,0.48073 1.21508,0.48073 1.3366,0 1.8834,-0.21634 1.2151,-0.48073 z m 20.78847,-0.79256 c 2.08196,-1.06461 2.32312,-1.42524 0.95601,-1.42964 -1.52877,-0.005 -1.74211,-0.52677 -1.30212,-3.18521 0.28942,-1.74863 0.13464,-3.78587 -0.34396,-4.52718 -0.97729,-1.51377 -1.23309,0.026 -0.92396,5.56206 0.14265,2.5547 -0.1808,3.09755 -1.84566,3.09755 -1.11024,0 -2.01862,0.4289 -2.01862,0.9531 0,1.36892 2.26061,1.1747 5.47831,-0.47068 z m 17.06165,-0.18039 c -0.70172,-0.27532 -1.54014,-0.24147 -1.86315,0.0752 -0.32301,0.31671 0.25114,0.54196 1.27586,0.50058 1.13241,-0.0457 1.36274,-0.27157 0.58729,-0.57582 z m -49.04747,-1.9156 c -0.94579,-0.24165 -2.25809,-0.22576 -2.91622,0.0354 -0.65813,0.26108 0.11571,0.45879 1.71963,0.43937 1.60392,-0.0195 2.1424,-0.23304 1.19659,-0.47469 z m 9.01019,-0.76912 c 0,-0.90421 -0.92888,-1.42964 -2.5274,-1.42964 -1.57819,0 -3.76866,-1.21701 -5.83244,-3.2405 -1.81778,-1.78229 -3.31102,-2.74729 -3.31832,-2.14446 -0.008,0.60283 -0.27705,2.06106 -0.59941,3.24051 -0.53769,1.96721 -0.25855,2.14445 3.37719,2.14445 2.25754,0 4.50281,0.59972 5.21677,1.39339 1.64133,1.82462 3.68361,1.84471 3.68361,0.0362 z m 19.44146,-0.5877 c 0,-1.28555 -1.56933,-1.00349 -2.85275,0.51273 -0.94086,1.11154 -0.78777,1.26264 0.85306,0.84192 1.09983,-0.28199 1.99969,-0.89159 1.99969,-1.35465 z m -15.3709,-0.5399 c -0.70172,-0.27533 -1.54014,-0.24147 -1.86315,0.0752 -0.32301,0.31671 0.25112,0.54197 1.27584,0.50058 1.13243,-0.0457 1.36276,-0.27157 0.58731,-0.57581 z m 35.52293,-0.009 c -0.94579,-0.24165 -2.25809,-0.22576 -2.91622,0.0354 -0.65811,0.26109 0.11571,0.45879 1.71963,0.43937 1.60392,-0.0195 2.1424,-0.23303 1.19659,-0.47468 z m -53.7656,-5.05796 0.64418,-2.38272 -1.46422,2.38272 c -0.80531,1.31051 -1.46642,3.02607 -1.46911,3.81237 -0.004,1.27079 0.0868,1.27079 0.82005,0 0.4537,-0.7863 1.11481,-2.50186 1.4691,-3.81237 z m 31.93816,2.26611 c 0.65415,0.15441 0.86131,0.10086 0.46033,-0.11901 -0.40098,-0.21986 -0.74236,-1.32903 -0.75862,-2.46479 -0.0233,-1.62408 -0.20571,-1.75976 -0.85449,-0.63539 -0.4537,0.7863 -1.11744,2.50186 -1.47496,3.81237 -0.53053,1.94467 -0.45807,2.08337 0.39415,0.75439 0.57431,-0.89557 1.57943,-1.50199 2.23359,-1.34757 z m -13.14871,0.88927 c -0.93562,-0.23972 -1.70112,-1.04776 -1.70112,-1.79561 0,-0.74788 -0.43744,-1.35977 -0.97208,-1.35977 -1.13314,0 -1.17806,0.2709 -0.38203,2.30478 0.32452,0.82918 1.52746,1.45784 2.6732,1.39704 1.64318,-0.0872 1.72387,-0.20262 0.38203,-0.54644 z m 8.37115,-0.77265 c 0.30774,-0.78629 0.18261,-1.42963 -0.27805,-1.42963 -0.46065,0 -1.08934,0.64334 -1.39709,1.42963 -0.30774,0.7863 -0.18263,1.42964 0.27803,1.42964 0.46067,0 1.08936,-0.64334 1.39711,-1.42964 z m -16.95362,-1.62883 c -1.29433,-0.46113 -3.10914,-1.78439 -4.03287,-2.9406 -0.92373,-1.15621 -1.68923,-1.73817 -1.70112,-1.29323 -0.0392,1.46902 5.9873,6.34477 7.04792,5.70207 0.59704,-0.36178 0.0379,-0.98669 -1.31393,-1.46824 z m 16.02156,-1.74429 c 1.57249,-0.0288 1.31625,-0.34515 -1.12061,-1.38363 -1.73758,-0.74047 -3.18696,-1.90314 -3.22085,-2.5837 -0.0339,-0.68055 -0.45724,-0.27237 -0.94075,0.90709 -0.53119,1.29572 -1.75717,2.17847 -3.09762,2.23041 -1.74531,0.0676 -1.54465,0.27673 0.94074,0.98034 1.93617,0.54814 3.18472,1.52955 3.22504,2.53505 0.0513,1.27721 0.29946,1.16561 1.12061,-0.5038 0.58364,-1.18651 1.96552,-2.16113 3.09344,-2.18176 z m 22.93821,1.94349 c 0,-0.5242 -0.46324,-0.9531 -1.02944,-0.9531 -0.5662,0 -0.75909,0.4289 -0.42866,0.9531 0.33042,0.5242 0.79368,0.95309 1.02944,0.95309 0.23576,0 0.42866,-0.42889 0.42866,-0.95309 z m 11.6649,-2.91229 c 0,-0.52643 -1.3123,-0.006 -2.91622,1.1568 -1.60394,1.16268 -2.91622,2.25877 -2.91622,2.43575 0,0.17697 1.31228,-0.34359 2.91622,-1.15681 1.60392,-0.81322 2.91622,-1.90931 2.91622,-2.43574 z M 74.513495,275.79532 c 1.715783,-8.97434 2.060708,-9.26202 14.660299,-12.2272 l 11.437766,-2.69174 7.16107,-10.76841 c 3.93857,-5.92262 7.69433,-10.75886 8.34612,-10.74721 0.65179,0.0116 2.27865,0.84749 3.61525,1.85742 l 2.43018,1.83623 -6.93082,13.64749 -6.93081,13.64748 -15.426881,4.53659 c -19.060897,5.60523 -19.261873,5.61519 -18.362174,0.90935 z M 112.5795,256.229 c 5.78778,-11.32459 6.58906,-14.03016 4.15515,-14.03016 -0.51726,0 -4.00339,4.66567 -7.74695,10.36815 l -6.80647,10.36814 -11.524749,2.63427 -11.524761,2.63428 -1.08448,3.54899 c -0.596464,1.95194 -1.08448,3.98102 -1.08448,4.50907 0,0.52804 6.609434,-1.01555 14.687632,-3.43017 l 14.687638,-4.39024 6.24147,-12.21233 z m 56.40625,22.50502 c -0.35643,-0.34947 -0.64805,-5.06726 -0.64805,-10.48401 0,-5.71761 -0.39495,-9.84862 -0.94158,-9.84862 -0.51785,0 -0.6819,0.66343 -0.36455,1.4743 0.73681,1.88262 -5.425,17.61975 -7.1536,18.27013 -1.69313,0.63703 -8.05028,-3.61222 -8.0589,-5.38671 -0.004,-0.75256 1.66186,-3.32592 3.70114,-5.71855 5.51495,-6.47059 5.54217,-6.59934 1.15197,-5.45041 -2.10452,0.55076 -4.12593,0.7077 -4.49202,0.34875 -0.6649,-0.65191 3.23482,-24.54305 4.1531,-25.44339 0.26687,-0.26165 2.96178,-1.33712 5.9887,-2.38993 3.41176,-1.18667 5.62597,-2.53822 5.82576,-3.55604 0.29886,-1.52251 -0.0174,-1.54161 -4.35144,-0.26274 -5.24883,1.54882 -6.51564,0.96561 -7.63544,-3.51523 -0.69857,-2.79522 -1.71123,-2.29064 11.40828,-5.6843 3.45851,-0.89462 4.33351,-1.47279 3.57864,-2.36459 -0.71312,-0.84246 0.17782,-3.80144 3.11178,-10.335 2.26102,-5.03502 4.47541,-9.37541 4.92082,-9.64533 1.01444,-0.6147 9.57088,6.31013 9.57088,7.74582 0,0.58095 -1.42855,2.7418 -3.17456,4.80191 -5.97151,7.04576 -5.86976,6.79387 -2.55177,6.3164 l 2.97522,-0.42814 -0.69125,8.93616 c -0.3802,4.91488 -0.87315,9.246 -1.09545,9.62471 -0.2223,0.37869 -2.13554,1.19714 -4.25167,1.81876 -3.1206,0.9167 -3.84748,1.57115 -3.84748,3.46406 0,1.74346 0.3917,2.18647 1.54842,1.75126 5.77189,-2.17164 5.92664,-2.091 11.05895,5.76284 6.60071,10.10086 6.59338,12.62121 -0.0624,21.42407 -2.72383,3.60246 -5.51683,6.54994 -6.2067,6.54994 -1.49971,0 -4.39413,-4.08364 -4.39413,-6.19953 0,-0.82563 0.89896,-3.22884 1.99769,-5.34046 1.70352,-3.27397 1.83532,-4.3217 0.89498,-7.11527 -0.85365,-2.53614 -1.44003,-3.09087 -2.59641,-2.45637 -1.23052,0.67518 -1.46502,2.85932 -1.33085,12.39525 l 0.16286,11.57565 -3.77646,0 c -2.07703,0 -4.06806,-0.28592 -4.42448,-0.63539 z m 5.79159,-12.6614 c -0.61627,-10.69195 -0.5397,-11.45195 1.24836,-12.3902 3.49777,-1.83539 5.00429,-1.11924 7.01341,3.33404 l 1.95515,4.33361 -2.53329,4.23829 c -2.02945,3.39539 -2.3257,4.61857 -1.48956,6.15039 0.57405,1.05166 1.3564,1.89849 1.73857,1.88184 0.77868,-0.034 9.92956,-12.78005 9.92956,-13.83074 0,-0.36958 -2.07782,-4.06343 -4.61736,-8.20859 -4.42109,-7.21629 -4.74129,-7.51147 -7.53356,-6.94481 -5.82408,1.18194 -5.83246,1.1772 -5.83246,-3.30566 0,-3.87022 0.24522,-4.28628 3.08949,-5.24201 4.4225,-1.48606 4.63494,-1.87915 5.17315,-9.57249 l 0.48604,-6.94761 -3.64528,0.48001 c -2.0049,0.26402 -3.64528,0.16269 -3.64528,-0.22514 0,-0.38785 2.24487,-3.47125 4.9886,-6.85202 l 4.98861,-6.14685 -2.74641,-2.81068 c -1.51056,-1.54587 -3.02941,-2.48617 -3.37526,-2.08957 -0.34585,0.39661 -2.10203,4.07176 -3.90259,8.167 -2.59497,5.90196 -3.00571,7.60833 -1.98093,8.22932 2.61501,1.5846 0.26891,3.29006 -7.26107,5.27835 -5.71487,1.509 -7.8077,2.49125 -8.06153,3.78359 -0.27857,1.41824 0.0856,1.63048 1.94237,1.1321 1.25686,-0.33733 3.95562,-0.88709 5.99721,-1.22165 l 3.712,-0.60831 -0.30974,3.61774 c -0.29716,3.47078 -0.54499,3.70356 -6.10134,5.73068 -3.18537,1.16211 -5.90695,2.48868 -6.04792,2.9479 -0.14099,0.45923 -1.0761,5.37856 -2.07801,10.93185 l -1.82169,10.09686 7.2837,-2.20338 c 4.00601,-1.21186 7.6567,-1.97734 8.11263,-1.70108 0.45591,0.27627 0.82893,4.94891 0.82893,10.38364 0,10.23242 0.0377,10.32788 4.27716,10.86363 0.50781,0.0642 0.59942,-4.66883 0.21834,-11.28005 z m -13.7156,-20.29969 c 0.82755,-4.99182 1.21339,-5.40884 5.65873,-6.11613 l 3.56137,-0.56664 0,4.32037 c 0,3.98903 -0.2348,4.40064 -3.06128,5.36671 -1.6837,0.57549 -3.90931,1.04633 -4.94581,1.04633 -1.67438,0 -1.80965,-0.45169 -1.21301,-4.05064 z m 7.27596,-2.26672 c 0,-1.87825 -0.31906,-2.08425 -2.18718,-1.41212 -1.37098,0.49327 -2.30227,1.72989 -2.49561,3.31391 -0.29204,2.3925 -0.17564,2.46765 2.18716,1.41212 1.6298,-0.72809 2.49563,-1.87781 2.49563,-3.31391 z m 5.03649,-14.8193 c 0.26193,-2.67676 0.73418,-3.21485 3.05,-3.47508 2.56894,-0.28869 2.72073,-0.11009 2.43018,2.85928 -0.26193,2.67677 -0.73418,3.21485 -3.05,3.47508 -2.56894,0.28868 -2.72073,0.11008 -2.43018,-2.85928 z m 3.71217,-0.89694 c 0,-0.5242 -0.43744,-0.68803 -0.97208,-0.36405 -0.53464,0.32397 -0.97208,1.01793 -0.97208,1.54213 0,0.5242 0.43744,0.68803 0.97208,0.36405 0.53464,-0.32397 0.97208,-1.01793 0.97208,-1.54213 z m -14.9971,41.0895 c 1.46962,-3.67268 2.44018,-6.90492 2.15679,-7.18278 -0.28339,-0.27785 -2.77301,2.05009 -5.5325,5.1732 l -5.01724,5.6784 2.19057,1.50438 c 1.20483,0.8274 2.49204,1.50437 2.86046,1.50437 0.36844,0 1.8723,-3.00491 3.34192,-6.67757 z m -24.20987,7.94836 c -0.35643,-0.34945 -0.67011,-5.81782 -0.69705,-12.15191 l -0.049,-11.51653 -2.15411,6.59743 c -1.18478,3.62859 -2.68372,6.77051 -3.33101,6.98206 -1.23131,0.40243 -8.95007,-5.38314 -8.98048,-6.73129 -0.01,-0.42709 3.04452,-5.86768 6.787,-12.0902 3.74248,-6.22252 6.80452,-11.53568 6.80452,-11.80702 0,-0.27135 -2.18716,-0.23938 -4.86038,0.071 l -4.86036,0.56438 0,-5.31995 0,-5.31996 4.13132,-0.29308 4.1313,-0.29307 0.28019,-8.86683 0.28017,-8.86683 4.58019,0.289 4.58019,0.289 0.28087,8.33956 0.28086,8.33955 3.36442,0 c 3.24759,0 3.36441,0.12576 3.36441,3.62175 0,1.99196 -0.46062,4.07337 -1.0236,4.62535 -0.71674,0.70275 -0.39431,2.04934 1.07556,4.49196 1.98971,3.30646 2.01479,3.61461 0.48092,5.90988 -2.20813,3.30423 -4.41391,3.9686 -6.02114,1.81353 -1.12079,-1.50285 -1.22218,0.63364 -0.67533,14.2289 0.53227,13.2322 0.40648,16.14437 -0.72777,16.84838 -1.61291,1.00109 -6.11089,1.15753 -7.04169,0.2449 z m 5.37977,-19.44973 c -0.40708,-15.21094 -0.28666,-17.08545 1.09758,-17.08545 0.85517,0 2.02306,0.85779 2.59532,1.90619 1.31848,2.41547 2.61497,2.43209 3.38821,0.0435 0.96659,-2.986 -1.97333,-6.53374 -4.95176,-5.9755 -2.17198,0.40709 -2.4516,0.17502 -2.1663,-1.79786 0.24133,-1.66882 1.09546,-2.394 3.24383,-2.75409 2.08945,-0.35023 3.00427,-1.09503 3.22683,-2.62713 0.27006,-1.85897 -0.12458,-2.13835 -3.02033,-2.13835 l -3.33095,0 -0.54224,-7.75664 c -0.53257,-7.618 -1.35436,-9.35002 -4.45271,-9.38441 -1.03581,-0.0116 -1.2421,1.85645 -0.97206,8.8015 l 0.34278,8.8161 -4.61734,0.29049 c -4.51529,0.28408 -4.61736,0.35998 -4.61736,3.43419 l 0,3.14368 4.86038,-0.45789 c 4.55837,-0.42945 4.86036,-0.32176 4.86036,1.73313 0,1.20505 -2.91724,7.11666 -6.48279,13.1369 l -6.48278,10.94588 2.76041,2.32804 2.76042,2.32804 2.32464,-6.52758 c 1.27855,-3.59018 2.49962,-7.05647 2.7135,-7.70289 0.21388,-0.64641 1.06157,-0.92219 1.88377,-0.61284 1.22841,0.46217 1.49491,2.56931 1.49491,11.81962 0,12.59596 0.34343,14.25509 2.81927,13.62028 1.58857,-0.40732 1.68631,-1.76211 1.26441,-17.52687 z m -120.935045,0.54675 c -0.111384,-8.1251 -0.220742,-16.7884 -0.243018,-19.25178 l -0.0405,-4.47883 6.318478,-1.52096 c 5.756945,-1.38579 6.346678,-1.75883 6.635765,-4.19753 l 0.317285,-2.67657 -9.044275,0.33682 -9.044273,0.33683 -5.562229,-8.57783 c -3.0592294,-4.7178 -5.5842236,-9.11394 -5.6111024,-9.76919 -0.070091,-1.70868 3.7258581,-1.55611 33.7306924,1.35578 l 26.489008,2.5707 0,2.26103 c 0,1.24358 -0.475711,4.11338 -1.057139,6.37734 -1.016604,3.95847 -1.226807,4.1391 -5.482079,4.71095 -2.433717,0.32707 -6.332335,0.59468 -8.663597,0.59468 -3.105263,0 -4.238659,0.37937 -4.238659,1.41879 0,1.12593 1.221975,1.37186 5.919507,1.19136 l 5.919504,-0.22743 6.158607,20.49147 c 3.387233,11.27031 5.863295,20.7682 5.502361,21.10643 -0.530771,0.49737 -37.887811,2.72086 -45.713494,2.72086 -2.037858,0 -2.093222,-0.35703 -2.290844,-14.77292 z m 27.663599,11.35672 c 10.02451,-0.34553 18.21639,-0.68324 18.204175,-0.75047 -0.01221,-0.0672 -2.574453,-8.67002 -5.693864,-19.11732 l -5.671655,-18.99508 -5.873613,0.23504 c -6.345943,0.25394 -7.429028,-0.42511 -6.4954,-4.07235 0.56892,-2.22248 1.110404,-2.40061 9.17893,-3.01948 l 8.574341,-0.65766 1.101356,-4.28847 c 0.605746,-2.35866 0.972302,-4.36874 0.814569,-4.46687 -0.522567,-0.32509 -54.5345219,-5.33438 -54.7808104,-5.08062 -0.1328441,0.13689 1.7942864,3.55703 4.2825104,7.60032 l 4.524045,7.35144 9.420351,0.035 c 5.181193,0.0193 9.617768,0.3567 9.859056,0.74984 0.241288,0.39315 0.155471,2.43039 -0.190702,4.52719 -0.624364,3.78183 -0.678033,3.82325 -6.699816,5.17054 l -6.070409,1.35821 0,17.54917 0,17.54916 3.645276,-0.52468 c 2.004902,-0.28857 11.84715,-0.80737 21.87166,-1.15289 z M 32.708128,259.11621 c -0.301592,-1.17944 -0.419286,-5.79002 -0.261538,-10.24573 l 0.286814,-8.10128 9.150556,0.2352 c 5.032807,0.12936 9.326522,0.40772 9.541588,0.61859 0.727436,0.71322 2.937934,17.23976 2.466879,18.44334 -0.333006,0.85086 -3.36761,1.19434 -10.551692,1.19434 -9.64722,0 -10.108018,-0.0929 -10.632607,-2.14446 z m 17.443101,-0.34024 c 0.845687,-0.31818 1.537613,-1.61303 1.537613,-2.87743 0,-1.88767 -0.391256,-2.21499 -2.187166,-1.82978 -1.20294,0.25801 -4.593048,0.58786 -7.53357,0.73297 l -5.346406,0.26385 0,-4.28892 0,-4.28891 6.561498,-0.28182 6.561498,-0.28182 0.07675,3.1411 c 0.0422,1.7276 0.305204,2.58196 0.584433,1.89858 0.27923,-0.68339 0.224874,-2.72063 -0.12079,-4.52719 l -0.628483,-3.28467 -7.732543,0 -7.732541,0 0.01071,4.52719 c 0.0059,2.48995 0.281835,6.13552 0.613224,8.10128 l 0.602528,3.57409 6.597824,0 c 3.628802,0 7.289751,-0.26033 8.135439,-0.57852 z m -2.350681,-8.47585 c 0,-2.22388 -0.324025,-2.38273 -4.86037,-2.38273 -4.536343,0 -4.860368,0.15885 -4.860368,2.38273 0,2.22388 0.324025,2.38273 4.860368,2.38273 4.536345,0 4.86037,-0.15885 4.86037,-2.38273 z m 30.86334,10.33017 c -2.004902,-0.81381 -3.645276,-2.0914 -3.645276,-2.83907 0,-2.0675 4.757191,-10.82692 5.880041,-10.82692 0.542806,0 2.551876,0.64111 4.464601,1.42469 3.065318,1.25576 3.401667,1.72165 2.836608,3.92907 -0.948872,3.70677 -3.804949,9.24446 -4.918624,9.53676 -0.53464,0.14033 -2.612448,-0.4107 -4.61735,-1.22453 z m 5.98547,-5.48493 c 1.199615,-3.09033 1.201116,-3.69816 0.01096,-4.43676 -2.40806,-1.49441 -3.396771,-0.9801 -5.640484,2.93408 l -2.189212,3.81912 2.253233,0.88254 c 3.230962,1.26548 4.005225,0.82045 5.565499,-3.19898 z m 5.621395,5.45571 c -0.275306,-0.43676 -0.640664,-4.87498 -0.811905,-9.86271 l -0.311351,-9.0686 -8.611985,2.24188 c -4.736591,1.23304 -8.847747,2.01074 -9.135899,1.72822 -0.288152,-0.28253 -0.739901,-3.47348 -1.003889,-7.09099 l -0.479975,-6.5773 3.591946,-0.66069 3.591948,-0.66069 -0.311462,-5.90104 -0.311459,-5.90106 4.86037,0 4.860368,0 0.291528,5.48028 c 0.226438,4.25666 0.637007,5.48027 1.838837,5.48027 1.365777,0 1.468356,-1.32341 0.874355,-11.28035 -0.759112,-12.72466 -0.942767,-12.31584 6.646163,-14.79459 7.751027,-2.5317 7.730397,-2.54735 7.049577,5.34953 l -0.59611,6.91424 4.43118,-0.34554 c 5.69191,-0.44385 6.60774,0.52102 5.75936,6.06788 l -0.67978,4.44466 -5.27532,-0.32237 c -3.9927,-0.244 -5.27498,-0.003 -5.27397,0.99082 9.8e-4,0.9793 0.92814,1.17393 3.6466,0.76551 2.0049,-0.30119 6.40729,-0.84341 9.7831,-1.20492 l 6.13785,-0.65728 -0.30541,4.13297 -0.30538,4.13299 -12.15092,3.05525 c -6.683,1.68039 -10.883416,3.09574 -9.334241,3.14524 l 2.816681,0.09 -0.66531,9.28009 c -0.36594,5.10405 -0.977296,9.56326 -1.358579,9.90937 -1.160188,1.05312 -8.722226,1.96721 -9.256918,1.11895 z m 8.349129,-10.05741 c 0.302119,-4.32175 0.451011,-7.95411 0.330876,-8.0719 -0.120134,-0.1178 -1.835832,0.0432 -3.812661,0.3577 l -3.594231,0.57188 0,5.99243 c 0,7.6956 0.561275,9.00762 3.853394,9.00762 2.655786,0 2.67692,-0.0515 3.222622,-7.85773 z m -2.215648,-13.00143 c 20.082096,-5.08014 21.898546,-5.71183 22.200226,-7.72046 0.26085,-1.73687 -0.0167,-2.05776 -1.34654,-1.55737 -2.83319,1.06596 -18.91016,1.89286 -18.90109,0.97214 0.0048,-0.47164 0.656992,-6.21867 1.449666,-12.77118 0.792664,-6.5525 1.445014,-12.0137 1.449654,-12.13599 0.005,-0.1223 -2.069352,0.5767 -4.608898,1.55332 l -4.61735,1.77568 -0.486036,11.78996 -0.486038,11.78996 -3.159238,0.29866 -3.15924,0.29865 0,-5.24613 c 0,-5.70785 -0.518201,-6.4989 -3.719601,-5.67806 -1.861456,0.47728 -2.112841,1.19676 -2.112841,6.04715 0,5.71942 -0.699215,6.66245 -4.939873,6.66245 -1.025553,0 -1.85983,0.53612 -1.853945,1.19137 0.02425,2.70086 1.258312,8.33683 1.817618,8.30112 0.331027,-0.0212 10.444114,-2.52821 22.473526,-5.57127 z m -2.733958,3.05245 c -0.701715,-0.27532 -1.540129,-0.24147 -1.863141,0.0752 -0.323011,0.31671 0.25112,0.54196 1.275848,0.50059 1.132409,-0.0457 1.36275,-0.27158 0.587293,-0.57583 z m 16.550334,-19.36386 c 0.40238,-2.68808 0.23441,-2.85927 -2.80588,-2.85927 -2.94519,0 -3.23391,0.25527 -3.23391,2.85927 0,2.51659 0.33628,2.85928 2.8059,2.85928 2.37449,0 2.8717,-0.43961 3.23389,-2.85928 z m -8.28592,-2.621 c -0.24451,-0.91735 -0.44457,-0.16679 -0.44457,1.66791 0,1.8347 0.20006,2.58527 0.44457,1.66791 0.24448,-0.91735 0.24448,-2.41847 0,-3.33582 z m 52.81674,-3.20843 c -1.6831,-2.68199 -2.86169,-5.38354 -2.61909,-6.00344 0.54561,-1.39402 7.65689,-3.62747 8.52765,-2.67828 0.34882,0.38023 1.4032,3.01363 2.34309,5.85199 1.64367,4.96374 1.64115,5.20923 -0.0663,6.43337 -3.15117,2.25919 -5.02331,1.43497 -8.18535,-3.60364 z m 6.28185,2.03905 c 0.3228,-0.5121 0.10705,-2.67835 -0.47945,-4.81388 -0.93091,-3.3897 -1.33765,-3.80108 -3.20274,-3.23941 -3.02096,0.90976 -3.00949,0.79615 -0.51286,5.08194 2.32581,3.99257 3.17306,4.59268 4.19505,2.97135 z M 59.449614,171.02064 C 39.373085,152.19116 30.30322,143.06298 30.30322,141.68687 c 0,-2.73208 2.77315,-6.42772 4.197825,-5.59422 0.631719,0.36959 -1.366659,-1.59629 -4.440843,-4.3686 -3.074184,-2.77232 -5.589424,-5.68193 -5.589424,-6.46579 0,-2.10089 3.150132,-6.96134 4.511754,-6.96134 0.646998,0 -1.415766,-2.42419 -4.583917,-5.38708 -3.168154,-2.9629 -5.760279,-6.06191 -5.760279,-6.88671 0,-2.54894 13.313123,-13.206872 21.871658,-17.509538 7.984192,-4.013924 18.617727,-6.64329 28.897954,-7.145628 6.81741,-0.333131 10.868926,-0.151247 11.700296,0.525255 0.989081,0.804835 1.319236,0.463897 1.485422,-1.533926 0.702675,-8.447279 8.909077,-24.47266 16.923664,-33.048376 5.86038,-6.270681 13.51252,-12.472028 20.53667,-16.643048 l 3.72224,-2.210315 4.29736,4.135182 c 2.36355,2.274351 4.29736,4.673241 4.29736,5.330867 0,0.657625 -2.51524,2.909615 -5.58942,5.004422 -9.11886,6.213758 -10.37012,7.340644 -9.04353,8.144518 0.69612,0.421829 2.98884,-0.552449 5.55942,-2.362447 l 4.37472,-3.080333 3.56448,3.369203 3.56451,3.369201 3.37484,-2.300015 c 1.85614,-1.265008 3.85211,-2.300015 4.43547,-2.300015 1.38157,0 6.28477,5.023798 6.28477,6.439345 0,0.60117 -2.95268,2.970245 -6.5615,5.264612 -7.51168,4.775672 -9.6348,6.855668 -8.00557,7.842937 0.59431,0.36012 1.85293,-0.03059 2.79696,-0.868241 0.94403,-0.837651 2.14693,-1.523003 2.6731,-1.523003 1.28556,0 6.18079,5.073142 6.18079,6.405433 0,0.582519 -1.7264,2.39976 -3.83644,4.038312 -3.32357,2.580914 -4.09603,2.820251 -5.77808,1.790303 -1.6271,-0.996308 -2.26534,-0.90164 -3.94014,0.58444 -1.09919,0.975326 -1.99851,2.028517 -1.99849,2.340424 2e-5,0.311904 1.57347,1.798034 3.49655,3.302509 l 3.49654,2.735407 5.00907,-4.725503 c 2.755,-2.599028 6.18801,-5.588716 7.62889,-6.643754 l 2.61979,-1.918249 -3.83487,-3.671543 c -2.1092,-2.019348 -3.8349,-4.008011 -3.8349,-4.41925 0,-0.946892 7.35501,-5.537079 8.87226,-5.537079 1.94744,0 9.59714,6.715314 9.59714,8.424898 0,0.8941 -1.53102,2.434043 -3.40226,3.422095 -1.87124,0.988052 -3.40226,2.113382 -3.40226,2.500733 0,0.387351 1.53102,2.022275 3.40226,3.633164 1.87124,1.61089 3.40226,3.527001 3.40226,4.258024 0,0.731024 -1.7524,2.519829 -3.8942,3.975121 -3.07022,2.086115 -3.66209,2.920212 -2.79719,3.941989 1.52936,1.806784 2.04787,1.676157 6.20535,-1.563274 2.01828,-1.572601 4.05665,-2.859275 4.52973,-2.859275 1.72083,0 9.56535,7.915829 9.56535,9.652302 0,0.981639 -0.34702,1.784798 -0.77114,1.784798 -0.42411,0 -3.2146,2.037234 -6.20107,4.527188 -11.52065,9.60525 -18.8531,20.41558 -22.78791,33.59648 -1.79649,6.01792 -2.45588,7.13622 -4.17026,7.07251 -1.11999,-0.0417 -2.03636,0.30135 -2.03636,0.76215 0,0.4608 -2.51524,0.65552 -5.58942,0.4327 -3.07418,-0.22281 -4.63721,-0.21865 -3.4734,0.009 1.16383,0.22791 2.69223,1.09509 3.39649,1.92708 1.09682,1.29579 0.87557,1.8002 -1.54286,3.51752 -18.42128,13.08085 -30.0794,26.17537 -39.332888,44.17911 -1.711729,3.33037 -3.705371,5.95682 -4.521598,5.95682 -0.802964,0 -14.575812,-12.30119 -30.60633,-27.33598 z m 43.491026,3.31192 c 5.10761,-6.97306 15.20129,-17.24215 22.6258,-23.01904 l 3.40226,-2.64723 -5.3464,2.57572 c -11.50065,5.54064 -23.40172,15.62658 -32.257901,27.33796 -2.675713,3.53835 -5.370316,6.41787 -5.988008,6.39892 -0.617693,-0.019 -12.277625,-10.4928 -25.910959,-23.27522 -21.745399,-20.38818 -24.938629,-23.05005 -26.016075,-21.68693 -0.675507,0.85461 -1.112939,1.81717 -0.972074,2.139 0.140867,0.32184 13.101776,12.59574 28.80202,27.27533 l 28.545899,26.69016 3.867695,-7.22186 c 2.127229,-3.97202 6.288714,-10.52709 9.247743,-14.56681 z m -16.021978,2.2627 c 2.890864,-4.79828 14.444708,-16.3351 20.840958,-20.81023 3.42458,-2.39603 9.16019,-5.82688 12.74574,-7.62411 6.13977,-3.07752 6.29289,-3.23147 2.6309,-2.64523 -6.41834,1.02751 -21.02581,6.04815 -26.732026,9.18789 -2.940522,1.61797 -7.82842,4.81066 -10.861994,7.09485 -3.033574,2.28419 -5.824413,4.15308 -6.201863,4.15308 -0.377451,0 -7.909209,-6.75505 -16.737241,-15.0112 -8.82803,-8.25616 -19.877922,-18.54575 -24.555312,-22.86576 l -8.50435,-7.85459 -1.531611,2.2919 c -1.504608,2.25147 -1.390786,2.42552 6.455334,9.87106 22.668268,21.51094 49.847748,46.83466 50.305585,46.87083 0.285708,0.0226 1.251354,-1.17376 2.14588,-2.65849 z m 9.97161,-7.78448 c 0.967688,-1.0484 1.540716,-1.90619 1.273396,-1.90619 -0.26732,0 -1.277784,0.85779 -2.24547,1.90619 -0.967686,1.0484 -1.540713,1.90618 -1.273393,1.90618 0.26732,0 1.277781,-0.85778 2.245467,-1.90618 z m -25.759954,0.64268 c 0,-0.17072 -1.202942,-1.35016 -2.673204,-2.621 l -2.673202,-2.31059 2.356612,2.621 c 2.202609,2.44972 2.989794,3.05808 2.989794,2.31059 z m 32.564462,-7.31432 c 0.96769,-1.0484 1.54072,-1.90619 1.2734,-1.90619 -0.26732,0 -1.27777,0.85779 -2.24546,1.90619 -0.96769,1.0484 -1.54072,1.90618 -1.2734,1.90618 0.26732,0 1.27777,-0.85778 2.24546,-1.90618 z m -17.568566,-6.13808 c 6.211579,-4.5895 15.893046,-9.33737 24.108716,-11.8231 4.99949,-1.51265 21.59328,-3.95993 26.85029,-3.95993 0.34101,0 -12.49754,-12.86674 -28.53006,-28.59275 l -29.150065,-28.592752 -5.636481,0 c -16.654621,0 -35.608282,7.355695 -47.889332,18.585292 l -5.21166,4.76545 29.355021,27.32656 c 17.158644,15.97297 29.76207,27.01561 30.334736,26.57815 0.538841,-0.41163 3.134818,-2.34074 5.768835,-4.28692 z m -18.884192,-3.70325 c 0,-0.17072 -1.20294,-1.35017 -2.673202,-2.621 l -2.673204,-2.31059 2.356612,2.621 c 2.202609,2.44972 2.989794,3.05808 2.989794,2.31059 z m -16.525254,-1.90618 c 0,-0.17072 -1.20294,-1.35017 -2.673202,-2.62101 l -2.673202,-2.31059 2.356612,2.62101 c 2.202609,2.44972 2.989792,3.05807 2.989792,2.31059 z m 73.087792,-7.0123 c -0.70171,-0.27532 -1.54013,-0.24147 -1.86315,0.0752 -0.32301,0.31671 0.25114,0.54197 1.27586,0.50058 1.13241,-0.0457 1.36274,-0.27156 0.58729,-0.57582 z m 25.11622,-19.89085 c 4.80335,-9.86799 12.80958,-19.34145 22.74107,-26.908561 l 2.8381,-2.162449 -3.27181,-3.309741 c -1.79952,-1.820358 -3.60822,-3.309742 -4.01939,-3.309742 -0.41115,0 -2.24218,1.286674 -4.06895,2.859275 -3.96569,3.413927 -4.24766,3.445033 -7.13339,0.786954 -3.06378,-2.822054 -2.84872,-3.976516 1.37684,-7.39157 l 3.62666,-2.931029 -3.42108,-3.354269 -3.42106,-3.354269 -6.88318,5.680782 c -3.78575,3.12443 -7.1453,6.35048 -7.46563,7.168999 -0.95732,2.446017 -3.73836,1.704038 -7.65004,-2.04103 -4.28641,-4.103838 -4.48445,-5.520598 -1.27198,-9.099216 2.55596,-2.847267 4.31562,-3.266019 6.15324,-1.464295 0.92493,0.906881 1.73743,0.6099 3.7619,-1.37504 2.17452,-2.132047 2.38383,-2.766069 1.32584,-4.015981 -1.60572,-1.896987 -2.8561,-1.874035 -5.07306,0.09312 -1.65861,1.471701 -1.91506,1.455742 -3.8289,-0.238273 -2.03851,-1.80436 -2.07402,-1.790488 -5.72151,2.235011 -2.01864,2.227855 -4.02432,4.050643 -4.45708,4.050643 -1.3096,0 -6.23959,-5.03354 -6.23959,-6.370665 0,-1.841232 6.7818,-8.878801 8.55611,-8.878801 0.83895,0 2.4936,0.891849 3.677,1.981887 l 2.15163,1.981887 7.38874,-5.036369 c 4.06381,-2.770004 7.38874,-5.324903 7.38874,-5.677554 0,-0.352651 -0.69006,-1.202694 -1.53347,-1.888987 -1.28776,-1.047879 -2.21885,-0.880697 -5.8113,1.043439 l -4.27785,2.291242 -3.40759,-3.23828 -3.40762,-3.23828 -3.84709,3.031233 c -2.11588,1.667177 -4.24237,3.031231 -4.72549,3.031231 -1.63416,0 -4.3356,-3.731518 -3.76216,-5.196712 0.31327,-0.800437 3.64709,-3.656902 7.40846,-6.3477 3.76137,-2.690797 6.83885,-5.188309 6.83885,-5.550029 0,-0.361718 -1.26444,-1.845422 -2.80986,-3.297118 -2.71448,-2.549852 -2.90993,-2.588711 -5.75786,-1.144744 -5.84724,2.964677 -17.91759,13.352756 -22.685713,19.523954 -5.565327,7.202976 -10.726853,17.3329 -12.580145,24.689574 l -1.270943,5.045027 29.592301,28.393616 29.59231,28.39361 1.23704,-4.73932 c 0.68037,-2.60663 2.54737,-7.43129 4.14891,-10.72145 z m -7.16445,-22.18398 c -2.24888,-2.436453 -2.01262,-4.536737 0.93678,-8.328101 3.01759,-3.879 5.06127,-4.110239 8.11929,-0.918681 l 2.25508,2.353549 -3.60882,4.318093 c -3.96394,4.74301 -5.29165,5.18691 -7.70233,2.57514 z m 6.05961,-4.100393 c 2.05876,-2.552317 2.1575,-3.03984 0.87115,-4.301078 -1.28636,-1.26124 -1.74562,-1.078936 -4.05187,1.608339 -2.03626,2.372707 -2.35788,3.318087 -1.48118,4.353812 1.53343,1.8116 1.99274,1.64795 4.6619,-1.661073 z M 44.39829,130.68712 c -1.536654,-1.57261 -3.012634,-2.85928 -3.279954,-2.85928 -0.26732,0 0.771226,1.28667 2.30788,2.85928 1.536654,1.57259 3.012634,2.85927 3.279954,2.85927 0.26732,0 -0.771226,-1.28668 -2.30788,-2.85927 z m 82.11953,-61.45348 c 3.21732,-3.254622 3.24413,-3.350386 1.47403,-5.268115 l -1.80285,-1.953236 -3.69874,3.541191 c -3.47104,3.323196 -3.60061,3.647501 -2.10477,5.268116 2.12574,2.30304 2.34103,2.247291 6.13233,-1.587956 z m 31.37008,0.51031 c 1.47026,-0.722572 2.6732,-1.589681 2.6732,-1.926908 0,-0.337228 -1.432,-1.973986 -3.18222,-3.637238 l -3.18221,-3.024098 -3.26495,1.946762 -3.26495,1.946762 3.24838,3.286026 c 1.78659,1.807314 3.48488,3.159224 3.77396,3.004243 0.28907,-0.154979 1.72853,-0.872976 3.19879,-1.595549 z m 8.67509,9.176512 c -1.16247,-1.213237 -2.11359,-2.685151 -2.11359,-3.270921 0,-1.36605 5.18584,-5.007204 7.1314,-5.007204 1.28079,0 5.50556,4.624299 5.50556,6.026218 0,0.68018 -6.33774,4.45779 -7.47886,4.45779 -0.51201,0 -1.88203,-0.992648 -3.04451,-2.205883 z m 6.53305,-4.109747 c -2.33571,-2.759406 -6.42274,-0.46398 -4.51282,2.534567 0.98401,1.544892 1.27681,1.56532 3.34958,0.2337 1.77505,-1.140335 2.02922,-1.745205 1.16324,-2.768267 z M 152.97521,51.296857 c -1.70881,-1.728607 -3.10693,-3.794088 -3.10693,-4.589956 0,-1.649713 6.62793,-5.610406 9.38859,-5.610406 2.28892,0 9.08083,5.386314 9.08083,7.201521 0,1.354333 -8.53995,6.141762 -10.95585,6.141762 -0.71485,0 -2.69785,-1.414314 -4.40664,-3.142921 z m 8.44784,-0.977914 3.97662,-2.214653 -2.76762,-2.599769 c -2.76253,-2.594986 -2.77413,-2.596725 -6.30757,-0.944644 -1.94699,0.910319 -3.53996,2.084161 -3.53996,2.608537 0,0.802878 3.77944,5.365182 4.44454,5.365182 0.11957,0 2.00686,-0.996594 4.19399,-2.214653 z M 139.36617,39.859756 c -1.70879,-1.728606 -3.10691,-3.64581 -3.10691,-4.260453 0,-0.614642 1.72344,-2.090052 3.82989,-3.278688 3.53272,-1.993482 3.71212,-2.28872 2.31227,-3.805327 -2.33853,-2.533588 -1.08679,-3.995243 6.85359,-8.002972 l 7.33058,-3.699933 3.44586,3.274651 c 3.81769,3.627988 4.30153,5.346733 1.74475,6.197765 -3.22743,1.07426 -5.15339,3.090955 -4.51343,4.726092 0.56866,1.45296 0.73558,1.43711 1.89045,-0.179496 0.69671,-0.97525 3.05915,-2.565669 5.24989,-3.534266 l 3.98318,-1.761085 2.89192,2.716537 c 4.10114,3.852407 3.6989,5.475842 -2.00574,8.095583 l -4.89766,2.249148 -2.53579,-2.486258 -2.53576,-2.486257 -7.7107,4.68894 c -4.2409,2.578918 -8.02768,4.688942 -8.4151,4.688942 -0.3874,0 -2.1025,-1.414315 -3.81129,-3.142923 z m 10.38695,-3.212969 c 4.12717,-2.401805 5.69456,-3.804373 5.00595,-4.479531 -1.90991,-1.872628 -1.00554,-4.363565 2.15675,-5.940417 1.73758,-0.866428 3.33882,-1.732595 3.55832,-1.924816 0.77542,-0.679094 -3.15222,-4.173419 -4.68105,-4.164601 -1.59966,0.0092 -11.75725,5.381536 -11.75725,6.218364 0,0.258609 0.5468,1.363133 1.2151,2.454496 1.04102,1.700027 0.93658,2.170119 -0.72906,3.281382 -6.14667,4.10089 -5.99265,3.865681 -3.96774,6.059474 1.01138,1.095746 2.143,1.992266 2.5147,1.992266 0.3717,0 3.37964,-1.573478 6.68428,-3.496617 z m 19.13588,-2.82805 c 2.30226,-1.47904 2.34208,-1.651249 0.77478,-3.349293 -1.67289,-1.81242 -4.31883,-1.661311 -6.94003,0.396347 -0.98844,0.77592 -0.90866,1.331662 0.39367,2.742627 2.00057,2.167448 2.68623,2.192433 5.77158,0.210319 z m -8.63207,-18.269596 c -1.43662,-1.470234 -2.61205,-3.24574 -2.61205,-3.945568 0,-4.1059157 9.92164,-5.3309532 13.43959,-1.6594018 1.16247,1.2132368 2.11359,2.4818308 2.11359,2.8190988 0,0.758543 -8.07771,5.459026 -9.38127,5.459026 -0.52129,0 -2.12324,-1.20292 -3.55986,-2.673155 z m 7.2442,-1.684467 c 2.84222,-1.441062 2.89034,-1.568594 1.25917,-3.33582 -2.07269,-2.2455893 -3.64404,-2.3098312 -6.80636,-0.278267 -2.29545,1.474679 -2.33814,1.655525 -0.78721,3.335821 1.99416,2.160487 2.57204,2.185872 6.3344,0.278266 z"
     id="path2987"
     inkscape:connector-curvature="0" />
</svg>
